<svg xmlns="http://www.w3.org/2000/svg" xmlns:xlink="http://www.w3.org/1999/xlink" width="500" zoomAndPan="magnify" viewBox="0 0 375 374.999991" height="500" preserveAspectRatio="xMidYMid meet" version="1.0"><defs><g/></defs><g fill="#000000" fill-opacity="1"><g transform="translate(12.991126, 224.047753)"><g><path d="M 52.679688 3.578125 C 52.679688 0.574219 51.964844 -1.574219 51.964844 -7.300781 C 51.964844 -17.320312 55.398438 -43.660156 52.25 -49.101562 C 51.675781 -50.390625 50.390625 -51.105469 48.957031 -51.105469 C 47.957031 -51.105469 46.953125 -50.820312 46.09375 -50.246094 C 43.089844 -48.242188 40.367188 -42.660156 38.507812 -39.078125 C 28.34375 -18.464844 22.761719 8.875 16.320312 32.351562 L 12.882812 42.660156 C 12.167969 44.234375 12.167969 44.949219 10.59375 45.378906 L 9.160156 38.363281 C 5.296875 15.175781 8.589844 -23.046875 11.59375 -43.945312 C 14.171875 -61.269531 16.03125 -71.433594 20.46875 -87.75 C 21.328125 -90.613281 23.621094 -95.910156 19.613281 -95.910156 C 13.886719 -95.910156 6.726562 -52.105469 6.296875 -49.242188 C 5.011719 -40.367188 3.863281 -31.636719 2.863281 -22.617188 L 1.429688 6.296875 C 1.429688 15.601562 2.289062 50.960938 10.59375 50.960938 C 13.457031 50.960938 14.316406 49.53125 15.601562 47.238281 C 18.179688 40.941406 20.328125 34.785156 21.902344 28.199219 C 24.335938 19.753906 26.484375 10.308594 28.773438 1.289062 C 31.78125 -11.023438 38.363281 -33.640625 46.238281 -44.234375 C 47.238281 -45.523438 47.097656 -45.953125 48.8125 -46.378906 C 48.8125 -44.234375 49.101562 -42.945312 49.101562 -41.800781 L 46.953125 -13.167969 C 46.523438 -6.871094 46.523438 9.019531 52.679688 9.019531 C 60.265625 9.019531 68.570312 -23.332031 71.003906 -29.773438 C 74.867188 -39.222656 77.015625 -47.238281 81.738281 -57.691406 C 86.320312 -67.996094 88.894531 -73.867188 94.765625 -83.457031 C 96.914062 -87.179688 100.0625 -92.046875 103.785156 -93.90625 C 107.078125 -86.75 100.207031 -51.246094 98.917969 -43.230469 C 95.769531 -24.480469 94.480469 -11.882812 92.1875 6.15625 L 87.894531 70 C 88.039062 71.71875 88.039062 72.578125 88.179688 75.011719 C 88.324219 77.300781 89.613281 78.734375 90.757812 78.734375 C 91.757812 78.734375 92.761719 77.585938 92.761719 75.011719 C 92.761719 69.714844 92.617188 63.128906 93.046875 57.976562 C 95.339844 37.363281 96.339844 17.464844 99.488281 -3.722656 L 108.363281 -62.84375 C 109.082031 -67.710938 114.949219 -99.058594 103.785156 -99.058594 C 93.761719 -99.058594 77.300781 -59.265625 74.296875 -51.675781 C 68.570312 -37.074219 64.5625 -23.621094 59.121094 -9.449219 C 57.976562 -5.871094 55.257812 2.003906 52.679688 3.578125 Z M 52.679688 3.578125 "/></g></g></g><g fill="#000000" fill-opacity="1"><g transform="translate(84.872427, 261.839016)"><g><path d="M 9.71875 -32.3125 L 9.71875 0 L 2.34375 0 L 2.34375 -32.3125 Z M 9.71875 -32.3125 "/></g></g></g><g fill="#000000" fill-opacity="1"><g transform="translate(115.147822, 261.839016)"><g><path d="M 2.34375 -32.3125 L 13.90625 -32.3125 C 17.007812 -32.3125 19.539062 -31.484375 21.5 -29.828125 C 23.457031 -28.171875 24.4375 -25.800781 24.4375 -22.71875 C 24.4375 -20.34375 23.84375 -18.351562 22.65625 -16.75 C 21.46875 -15.144531 19.859375 -14.015625 17.828125 -13.359375 L 28.953125 0 L 19.59375 0 L 9.71875 -12.765625 L 9.71875 0 L 2.34375 0 Z M 9.71875 -17.984375 L 10.578125 -17.984375 C 11.253906 -17.984375 11.828125 -17.992188 12.296875 -18.015625 C 12.765625 -18.046875 13.300781 -18.140625 13.90625 -18.296875 C 14.507812 -18.453125 14.992188 -18.671875 15.359375 -18.953125 C 15.722656 -19.242188 16.035156 -19.660156 16.296875 -20.203125 C 16.554688 -20.753906 16.6875 -21.421875 16.6875 -22.203125 C 16.6875 -22.992188 16.554688 -23.660156 16.296875 -24.203125 C 16.035156 -24.753906 15.722656 -25.171875 15.359375 -25.453125 C 14.992188 -25.742188 14.507812 -25.96875 13.90625 -26.125 C 13.300781 -26.28125 12.765625 -26.367188 12.296875 -26.390625 C 11.828125 -26.421875 11.253906 -26.4375 10.578125 -26.4375 L 9.71875 -26.4375 Z M 9.71875 -17.984375 "/></g></g></g><g fill="#000000" fill-opacity="1"><g transform="translate(161.402119, 261.839016)"><g><path d="M 18.765625 -32.3125 L 31.8125 0 L 23.890625 0 L 21.5 -6.46875 L 9.203125 -6.46875 L 6.8125 0 L -1.09375 0 L 11.953125 -32.3125 Z M 19 -12.921875 L 15.390625 -22.328125 L 15.3125 -22.328125 L 11.71875 -12.921875 Z M 19 -12.921875 "/></g></g></g><g fill="#000000" fill-opacity="1"><g transform="translate(210.319578, 261.839016)"><g><path d="M 19.546875 -6.65625 C 20.671875 -6.65625 21.757812 -6.820312 22.8125 -7.15625 C 23.875 -7.5 24.648438 -7.828125 25.140625 -8.140625 L 25.890625 -8.65625 L 29.03125 -2.390625 C 28.925781 -2.304688 28.78125 -2.195312 28.59375 -2.0625 C 28.414062 -1.9375 27.992188 -1.695312 27.328125 -1.34375 C 26.660156 -1 25.945312 -0.695312 25.1875 -0.4375 C 24.425781 -0.175781 23.429688 0.0546875 22.203125 0.265625 C 20.984375 0.484375 19.71875 0.59375 18.40625 0.59375 C 15.40625 0.59375 12.5625 -0.144531 9.875 -1.625 C 7.1875 -3.101562 5.019531 -5.132812 3.375 -7.71875 C 1.726562 -10.300781 0.90625 -13.09375 0.90625 -16.09375 C 0.90625 -18.363281 1.382812 -20.546875 2.34375 -22.640625 C 3.3125 -24.734375 4.597656 -26.519531 6.203125 -28 C 7.816406 -29.488281 9.691406 -30.675781 11.828125 -31.5625 C 13.972656 -32.457031 16.164062 -32.90625 18.40625 -32.90625 C 20.5 -32.90625 22.425781 -32.65625 24.1875 -32.15625 C 25.945312 -31.664062 27.191406 -31.171875 27.921875 -30.671875 L 29.03125 -29.921875 L 25.890625 -23.65625 C 25.710938 -23.8125 25.4375 -24 25.0625 -24.21875 C 24.695312 -24.445312 23.96875 -24.742188 22.875 -25.109375 C 21.78125 -25.472656 20.671875 -25.65625 19.546875 -25.65625 C 17.773438 -25.65625 16.179688 -25.367188 14.765625 -24.796875 C 13.359375 -24.222656 12.242188 -23.460938 11.421875 -22.515625 C 10.597656 -21.578125 9.96875 -20.566406 9.53125 -19.484375 C 9.101562 -18.398438 8.890625 -17.296875 8.890625 -16.171875 C 8.890625 -13.722656 9.8125 -11.523438 11.65625 -9.578125 C 13.5 -7.628906 16.128906 -6.65625 19.546875 -6.65625 Z M 19.546875 -6.65625 "/></g></g></g><g fill="#000000" fill-opacity="1"><g transform="translate(258.022944, 261.839016)"><g><path d="M 9.71875 -32.3125 L 9.71875 -6.46875 L 20.84375 -6.46875 L 20.84375 0 L 2.34375 0 L 2.34375 -32.3125 Z M 9.71875 -32.3125 "/></g></g></g><g fill="#000000" fill-opacity="1"><g transform="translate(298.363479, 261.839016)"><g><path d="M 20.84375 -32.3125 L 20.84375 -25.859375 L 9.71875 -25.859375 L 9.71875 -19.421875 L 20.375 -19.421875 L 20.375 -12.96875 L 9.71875 -12.96875 L 9.71875 -6.46875 L 20.84375 -6.46875 L 20.84375 0 L 2.34375 0 L 2.34375 -32.3125 Z M 20.84375 -32.3125 "/></g></g></g><g fill="#000000" fill-opacity="1"><g transform="translate(339.291485, 261.839016)"><g><path d="M 14.265625 -32.90625 C 16.015625 -32.90625 17.722656 -32.648438 19.390625 -32.140625 C 21.054688 -31.628906 22.296875 -31.125 23.109375 -30.625 L 24.28125 -29.84375 L 21.3125 -23.96875 C 21.070312 -24.125 20.742188 -24.328125 20.328125 -24.578125 C 19.910156 -24.828125 19.125 -25.160156 17.96875 -25.578125 C 16.820312 -25.992188 15.753906 -26.203125 14.765625 -26.203125 C 13.535156 -26.203125 12.585938 -25.941406 11.921875 -25.421875 C 11.253906 -24.898438 10.921875 -24.195312 10.921875 -23.3125 C 10.921875 -22.863281 11.078125 -22.445312 11.390625 -22.0625 C 11.710938 -21.6875 12.25 -21.285156 13 -20.859375 C 13.757812 -20.429688 14.425781 -20.082031 15 -19.8125 C 15.570312 -19.550781 16.460938 -19.160156 17.671875 -18.640625 C 19.753906 -17.753906 21.535156 -16.546875 23.015625 -15.015625 C 24.492188 -13.492188 25.234375 -11.765625 25.234375 -9.828125 C 25.234375 -7.972656 24.898438 -6.351562 24.234375 -4.96875 C 23.566406 -3.59375 22.648438 -2.507812 21.484375 -1.71875 C 20.328125 -0.9375 19.039062 -0.359375 17.625 0.015625 C 16.21875 0.398438 14.691406 0.59375 13.046875 0.59375 C 11.628906 0.59375 10.242188 0.445312 8.890625 0.15625 C 7.535156 -0.132812 6.398438 -0.492188 5.484375 -0.921875 C 4.566406 -1.347656 3.742188 -1.769531 3.015625 -2.1875 C 2.285156 -2.613281 1.75 -2.96875 1.40625 -3.25 L 0.90625 -3.6875 L 4.578125 -9.875 C 4.890625 -9.613281 5.320312 -9.28125 5.875 -8.875 C 6.425781 -8.46875 7.398438 -7.925781 8.796875 -7.25 C 10.191406 -6.570312 11.425781 -6.234375 12.5 -6.234375 C 15.601562 -6.234375 17.15625 -7.289062 17.15625 -9.40625 C 17.15625 -9.84375 17.039062 -10.25 16.8125 -10.625 C 16.59375 -11.007812 16.203125 -11.390625 15.640625 -11.765625 C 15.085938 -12.148438 14.59375 -12.453125 14.15625 -12.671875 C 13.726562 -12.890625 13.023438 -13.226562 12.046875 -13.6875 C 11.066406 -14.144531 10.34375 -14.492188 9.875 -14.734375 C 7.914062 -15.691406 6.398438 -16.894531 5.328125 -18.34375 C 4.253906 -19.800781 3.71875 -21.363281 3.71875 -23.03125 C 3.71875 -25.925781 4.785156 -28.296875 6.921875 -30.140625 C 9.066406 -31.984375 11.515625 -32.90625 14.265625 -32.90625 Z M 14.265625 -32.90625 "/></g></g></g></svg>