<svg xmlns="http://www.w3.org/2000/svg" xmlns:xlink="http://www.w3.org/1999/xlink" width="500" zoomAndPan="magnify" viewBox="0 0 375 374.999991" height="500" preserveAspectRatio="xMidYMid meet" version="1.0"><defs><g/><clipPath id="cd724bc9d9"><path d="M 18.726562 146.746094 L 356.273438 146.746094 L 356.273438 228.253906 L 18.726562 228.253906 Z M 18.726562 146.746094 " clip-rule="nonzero"/></clipPath></defs><g clip-path="url(#cd724bc9d9)"><path fill="#ffffff" d="M 18.726562 146.746094 L 356.234375 146.746094 L 356.234375 228.253906 L 18.726562 228.253906 Z M 18.726562 146.746094 " fill-opacity="1" fill-rule="nonzero"/></g><g fill="#000000" fill-opacity="1"><g transform="translate(3.525351, 244.821195)"><g><path d="M 45.285156 3.078125 C 45.285156 0.492188 44.667969 -1.355469 44.667969 -6.277344 C 44.667969 -14.890625 47.625 -37.53125 44.914062 -42.207031 C 44.421875 -43.316406 43.316406 -43.929688 42.085938 -43.929688 C 41.222656 -43.929688 40.363281 -43.683594 39.625 -43.191406 C 37.039062 -41.46875 34.703125 -36.671875 33.101562 -33.59375 C 24.367188 -15.875 19.566406 7.628906 14.027344 27.8125 L 11.074219 36.671875 C 10.460938 38.023438 10.460938 38.640625 9.105469 39.007812 L 7.875 32.980469 C 4.554688 13.042969 7.382812 -19.8125 9.96875 -37.777344 C 12.183594 -52.667969 13.78125 -61.40625 17.597656 -75.433594 C 18.335938 -77.894531 20.304688 -82.449219 16.859375 -82.449219 C 11.9375 -82.449219 5.785156 -44.792969 5.414062 -42.332031 C 4.308594 -34.703125 3.324219 -27.195312 2.460938 -19.441406 L 1.230469 5.414062 C 1.230469 13.414062 1.96875 43.808594 9.105469 43.808594 C 11.566406 43.808594 12.304688 42.578125 13.414062 40.609375 C 15.628906 35.195312 17.472656 29.902344 18.828125 24.242188 C 20.917969 16.980469 22.765625 8.859375 24.734375 1.109375 C 27.320312 -9.476562 32.980469 -28.917969 39.746094 -38.023438 C 40.609375 -39.132812 40.484375 -39.5 41.960938 -39.871094 C 41.960938 -38.023438 42.207031 -36.917969 42.207031 -35.933594 L 40.363281 -11.320312 C 39.992188 -5.90625 39.992188 7.753906 45.285156 7.753906 C 51.808594 7.753906 58.945312 -20.058594 61.035156 -25.597656 C 64.359375 -33.71875 66.203125 -40.609375 70.265625 -49.59375 C 74.203125 -58.453125 76.417969 -63.496094 81.464844 -71.742188 C 83.308594 -74.941406 86.015625 -79.125 89.214844 -80.726562 C 92.046875 -74.574219 86.140625 -44.054688 85.03125 -37.164062 C 82.324219 -21.042969 81.21875 -10.214844 79.25 5.292969 L 75.558594 60.175781 C 75.679688 61.652344 75.679688 62.390625 75.804688 64.480469 C 75.925781 66.449219 77.035156 67.679688 78.019531 67.679688 C 78.878906 67.679688 79.742188 66.695312 79.742188 64.480469 C 79.742188 59.929688 79.617188 54.269531 79.988281 49.839844 C 81.957031 32.117188 82.816406 15.011719 85.523438 -3.199219 L 93.15625 -54.023438 C 93.769531 -58.207031 98.816406 -85.15625 89.214844 -85.15625 C 80.601562 -85.15625 66.449219 -50.945312 63.867188 -44.421875 C 58.945312 -31.871094 55.5 -20.304688 50.824219 -8.121094 C 49.839844 -5.046875 47.5 1.722656 45.285156 3.078125 Z M 45.285156 3.078125 "/></g></g></g><g fill="#000000" fill-opacity="1"><g transform="translate(91.881766, 281.9909)"><g><path d="M 9.71875 -32.3125 L 9.71875 0 L 2.34375 0 L 2.34375 -32.3125 Z M 9.71875 -32.3125 "/></g></g></g><g fill="#000000" fill-opacity="1"><g transform="translate(122.15716, 281.9909)"><g><path d="M 2.34375 -32.3125 L 13.90625 -32.3125 C 17.007812 -32.3125 19.539062 -31.484375 21.5 -29.828125 C 23.457031 -28.171875 24.4375 -25.800781 24.4375 -22.71875 C 24.4375 -20.34375 23.84375 -18.351562 22.65625 -16.75 C 21.46875 -15.144531 19.859375 -14.015625 17.828125 -13.359375 L 28.953125 0 L 19.59375 0 L 9.71875 -12.765625 L 9.71875 0 L 2.34375 0 Z M 9.71875 -17.984375 L 10.578125 -17.984375 C 11.253906 -17.984375 11.828125 -17.992188 12.296875 -18.015625 C 12.765625 -18.046875 13.300781 -18.140625 13.90625 -18.296875 C 14.507812 -18.453125 14.992188 -18.671875 15.359375 -18.953125 C 15.722656 -19.242188 16.035156 -19.660156 16.296875 -20.203125 C 16.554688 -20.753906 16.6875 -21.421875 16.6875 -22.203125 C 16.6875 -22.992188 16.554688 -23.660156 16.296875 -24.203125 C 16.035156 -24.753906 15.722656 -25.171875 15.359375 -25.453125 C 14.992188 -25.742188 14.507812 -25.96875 13.90625 -26.125 C 13.300781 -26.28125 12.765625 -26.367188 12.296875 -26.390625 C 11.828125 -26.421875 11.253906 -26.4375 10.578125 -26.4375 L 9.71875 -26.4375 Z M 9.71875 -17.984375 "/></g></g></g><g fill="#000000" fill-opacity="1"><g transform="translate(168.411458, 281.9909)"><g><path d="M 18.765625 -32.3125 L 31.8125 0 L 23.890625 0 L 21.5 -6.46875 L 9.203125 -6.46875 L 6.8125 0 L -1.09375 0 L 11.953125 -32.3125 Z M 19 -12.921875 L 15.390625 -22.328125 L 15.3125 -22.328125 L 11.71875 -12.921875 Z M 19 -12.921875 "/></g></g></g><g fill="#000000" fill-opacity="1"><g transform="translate(217.328916, 281.9909)"><g><path d="M 19.546875 -6.65625 C 20.671875 -6.65625 21.757812 -6.820312 22.8125 -7.15625 C 23.875 -7.5 24.648438 -7.828125 25.140625 -8.140625 L 25.890625 -8.65625 L 29.03125 -2.390625 C 28.925781 -2.304688 28.78125 -2.195312 28.59375 -2.0625 C 28.414062 -1.9375 27.992188 -1.695312 27.328125 -1.34375 C 26.660156 -1 25.945312 -0.695312 25.1875 -0.4375 C 24.425781 -0.175781 23.429688 0.0546875 22.203125 0.265625 C 20.984375 0.484375 19.71875 0.59375 18.40625 0.59375 C 15.40625 0.59375 12.5625 -0.144531 9.875 -1.625 C 7.1875 -3.101562 5.019531 -5.132812 3.375 -7.71875 C 1.726562 -10.300781 0.90625 -13.09375 0.90625 -16.09375 C 0.90625 -18.363281 1.382812 -20.546875 2.34375 -22.640625 C 3.3125 -24.734375 4.597656 -26.519531 6.203125 -28 C 7.816406 -29.488281 9.691406 -30.675781 11.828125 -31.5625 C 13.972656 -32.457031 16.164062 -32.90625 18.40625 -32.90625 C 20.5 -32.90625 22.425781 -32.65625 24.1875 -32.15625 C 25.945312 -31.664062 27.191406 -31.171875 27.921875 -30.671875 L 29.03125 -29.921875 L 25.890625 -23.65625 C 25.710938 -23.8125 25.4375 -24 25.0625 -24.21875 C 24.695312 -24.445312 23.96875 -24.742188 22.875 -25.109375 C 21.78125 -25.472656 20.671875 -25.65625 19.546875 -25.65625 C 17.773438 -25.65625 16.179688 -25.367188 14.765625 -24.796875 C 13.359375 -24.222656 12.242188 -23.460938 11.421875 -22.515625 C 10.597656 -21.578125 9.96875 -20.566406 9.53125 -19.484375 C 9.101562 -18.398438 8.890625 -17.296875 8.890625 -16.171875 C 8.890625 -13.722656 9.8125 -11.523438 11.65625 -9.578125 C 13.5 -7.628906 16.128906 -6.65625 19.546875 -6.65625 Z M 19.546875 -6.65625 "/></g></g></g><g fill="#000000" fill-opacity="1"><g transform="translate(265.032282, 281.9909)"><g><path d="M 9.71875 -32.3125 L 9.71875 -6.46875 L 20.84375 -6.46875 L 20.84375 0 L 2.34375 0 L 2.34375 -32.3125 Z M 9.71875 -32.3125 "/></g></g></g><g fill="#000000" fill-opacity="1"><g transform="translate(305.372818, 281.9909)"><g><path d="M 20.84375 -32.3125 L 20.84375 -25.859375 L 9.71875 -25.859375 L 9.71875 -19.421875 L 20.375 -19.421875 L 20.375 -12.96875 L 9.71875 -12.96875 L 9.71875 -6.46875 L 20.84375 -6.46875 L 20.84375 0 L 2.34375 0 L 2.34375 -32.3125 Z M 20.84375 -32.3125 "/></g></g></g><g fill="#000000" fill-opacity="1"><g transform="translate(346.300824, 281.9909)"><g><path d="M 14.265625 -32.90625 C 16.015625 -32.90625 17.722656 -32.648438 19.390625 -32.140625 C 21.054688 -31.628906 22.296875 -31.125 23.109375 -30.625 L 24.28125 -29.84375 L 21.3125 -23.96875 C 21.070312 -24.125 20.742188 -24.328125 20.328125 -24.578125 C 19.910156 -24.828125 19.125 -25.160156 17.96875 -25.578125 C 16.820312 -25.992188 15.753906 -26.203125 14.765625 -26.203125 C 13.535156 -26.203125 12.585938 -25.941406 11.921875 -25.421875 C 11.253906 -24.898438 10.921875 -24.195312 10.921875 -23.3125 C 10.921875 -22.863281 11.078125 -22.445312 11.390625 -22.0625 C 11.710938 -21.6875 12.25 -21.285156 13 -20.859375 C 13.757812 -20.429688 14.425781 -20.082031 15 -19.8125 C 15.570312 -19.550781 16.460938 -19.160156 17.671875 -18.640625 C 19.753906 -17.753906 21.535156 -16.546875 23.015625 -15.015625 C 24.492188 -13.492188 25.234375 -11.765625 25.234375 -9.828125 C 25.234375 -7.972656 24.898438 -6.351562 24.234375 -4.96875 C 23.566406 -3.59375 22.648438 -2.507812 21.484375 -1.71875 C 20.328125 -0.9375 19.039062 -0.359375 17.625 0.015625 C 16.21875 0.398438 14.691406 0.59375 13.046875 0.59375 C 11.628906 0.59375 10.242188 0.445312 8.890625 0.15625 C 7.535156 -0.132812 6.398438 -0.492188 5.484375 -0.921875 C 4.566406 -1.347656 3.742188 -1.769531 3.015625 -2.1875 C 2.285156 -2.613281 1.75 -2.96875 1.40625 -3.25 L 0.90625 -3.6875 L 4.578125 -9.875 C 4.890625 -9.613281 5.320312 -9.28125 5.875 -8.875 C 6.425781 -8.46875 7.398438 -7.925781 8.796875 -7.25 C 10.191406 -6.570312 11.425781 -6.234375 12.5 -6.234375 C 15.601562 -6.234375 17.15625 -7.289062 17.15625 -9.40625 C 17.15625 -9.84375 17.039062 -10.25 16.8125 -10.625 C 16.59375 -11.007812 16.203125 -11.390625 15.640625 -11.765625 C 15.085938 -12.148438 14.59375 -12.453125 14.15625 -12.671875 C 13.726562 -12.890625 13.023438 -13.226562 12.046875 -13.6875 C 11.066406 -14.144531 10.34375 -14.492188 9.875 -14.734375 C 7.914062 -15.691406 6.398438 -16.894531 5.328125 -18.34375 C 4.253906 -19.800781 3.71875 -21.363281 3.71875 -23.03125 C 3.71875 -25.925781 4.785156 -28.296875 6.921875 -30.140625 C 9.066406 -31.984375 11.515625 -32.90625 14.265625 -32.90625 Z M 14.265625 -32.90625 "/></g></g></g></svg>