<svg xmlns="http://www.w3.org/2000/svg" xmlns:xlink="http://www.w3.org/1999/xlink" width="500" zoomAndPan="magnify" viewBox="0 0 375 374.999991" height="500" preserveAspectRatio="xMidYMid meet" version="1.0"><defs><g/></defs><g fill="#000000" fill-opacity="1"><g transform="translate(19.094225, 197.814772)"><g/></g></g><g fill="#000000" fill-opacity="1"><g transform="translate(76.433279, 197.814772)"><g><path d="M 81.457031 5.535156 C 81.457031 0.886719 80.347656 -2.433594 80.347656 -11.289062 C 80.347656 -26.78125 85.660156 -67.511719 80.792969 -75.921875 C 79.90625 -77.914062 77.914062 -79.019531 75.699219 -79.019531 C 74.152344 -79.019531 72.601562 -78.578125 71.273438 -77.691406 C 66.625 -74.59375 62.421875 -65.960938 59.542969 -60.429688 C 43.828125 -28.554688 35.195312 13.722656 25.234375 50.023438 L 19.921875 65.960938 C 18.816406 68.394531 18.816406 69.503906 16.378906 70.167969 L 14.167969 59.320312 C 8.191406 23.460938 13.28125 -35.636719 17.929688 -67.953125 C 21.914062 -94.738281 24.789062 -110.453125 31.652344 -135.6875 C 32.980469 -140.113281 36.523438 -148.304688 30.324219 -148.304688 C 21.472656 -148.304688 10.402344 -80.570312 9.738281 -76.144531 C 7.746094 -62.421875 5.976562 -48.917969 4.425781 -34.972656 L 2.214844 9.738281 C 2.214844 24.125 3.542969 78.800781 16.378906 78.800781 C 20.808594 78.800781 22.132812 76.585938 24.125 73.042969 C 28.109375 63.304688 31.429688 53.789062 33.867188 43.605469 C 37.628906 30.546875 40.949219 15.9375 44.492188 1.992188 C 49.140625 -17.042969 59.320312 -52.015625 71.496094 -68.394531 C 73.042969 -70.386719 72.824219 -71.050781 75.480469 -71.714844 C 75.480469 -68.394531 75.921875 -66.402344 75.921875 -64.632812 L 72.601562 -20.363281 C 71.9375 -10.625 71.9375 13.945312 81.457031 13.945312 C 93.1875 13.945312 106.027344 -36.078125 109.789062 -46.039062 C 115.765625 -60.648438 119.085938 -73.042969 126.390625 -89.203125 C 133.472656 -105.140625 137.457031 -114.214844 146.53125 -129.046875 C 149.851562 -134.800781 154.722656 -142.328125 160.476562 -145.203125 C 165.566406 -134.136719 154.941406 -79.242188 152.949219 -66.847656 C 148.082031 -37.851562 146.089844 -18.371094 142.546875 9.519531 L 135.90625 108.238281 C 136.128906 110.894531 136.128906 112.222656 136.351562 115.984375 C 136.570312 119.527344 138.5625 121.742188 140.335938 121.742188 C 141.882812 121.742188 143.433594 119.96875 143.433594 115.984375 C 143.433594 107.796875 143.210938 97.613281 143.875 89.644531 C 147.417969 57.773438 148.96875 27.003906 153.835938 -5.753906 L 167.558594 -97.171875 C 168.667969 -104.699219 177.742188 -153.171875 160.476562 -153.171875 C 144.984375 -153.171875 119.527344 -91.636719 114.878906 -79.90625 C 106.027344 -57.328125 99.828125 -36.523438 91.417969 -14.609375 C 89.644531 -9.074219 85.441406 3.097656 81.457031 5.535156 Z M 81.457031 5.535156 "/></g></g></g></svg>