<svg xmlns="http://www.w3.org/2000/svg" xmlns:xlink="http://www.w3.org/1999/xlink" width="1024" zoomAndPan="magnify" viewBox="0 0 768 576" height="768" preserveAspectRatio="xMidYMid meet" version="1.0"><defs><g/></defs><path fill="#ffffff" d="M 238.644531 0 L 529.355469 0 C 531.691406 0 534.023438 0.0585938 536.355469 0.171875 C 538.6875 0.285156 541.015625 0.457031 543.339844 0.6875 C 545.660156 0.914062 547.976562 1.203125 550.289062 1.542969 C 552.597656 1.886719 554.894531 2.285156 557.183594 2.742188 C 559.476562 3.195312 561.753906 3.707031 564.015625 4.273438 C 566.28125 4.84375 568.53125 5.464844 570.765625 6.140625 C 573 6.820312 575.214844 7.550781 577.410156 8.339844 C 579.609375 9.125 581.789062 9.964844 583.945312 10.859375 C 586.101562 11.75 588.234375 12.695312 590.34375 13.695312 C 592.457031 14.695312 594.539062 15.742188 596.597656 16.84375 C 598.65625 17.945312 600.6875 19.09375 602.691406 20.292969 C 604.691406 21.496094 606.664062 22.742188 608.605469 24.039062 C 610.546875 25.335938 612.453125 26.679688 614.328125 28.070312 C 616.203125 29.460938 618.042969 30.898438 619.847656 32.378906 C 621.652344 33.859375 623.421875 35.382812 625.148438 36.953125 C 626.878906 38.519531 628.570312 40.128906 630.222656 41.777344 C 631.871094 43.429688 633.480469 45.121094 635.046875 46.851562 C 636.617188 48.578125 638.140625 50.347656 639.621094 52.152344 C 641.101562 53.957031 642.539062 55.796875 643.929688 57.671875 C 645.320312 59.546875 646.664062 61.453125 647.960938 63.394531 C 649.257812 65.335938 650.503906 67.308594 651.707031 69.308594 C 652.90625 71.3125 654.054688 73.34375 655.15625 75.402344 C 656.257812 77.460938 657.304688 79.542969 658.304688 81.65625 C 659.304688 83.765625 660.25 85.898438 661.140625 88.054688 C 662.035156 90.210938 662.875 92.390625 663.660156 94.589844 C 664.449219 96.785156 665.179688 99 665.859375 101.234375 C 666.535156 103.46875 667.15625 105.71875 667.726562 107.984375 C 668.292969 110.246094 668.804688 112.523438 669.257812 114.816406 C 669.714844 117.105469 670.113281 119.402344 670.457031 121.710938 C 670.796875 124.023438 671.085938 126.339844 671.3125 128.660156 C 671.542969 130.984375 671.714844 133.3125 671.828125 135.644531 C 671.941406 137.976562 672 140.308594 672 142.644531 L 672 433.355469 C 672 435.691406 671.941406 438.023438 671.828125 440.355469 C 671.714844 442.6875 671.542969 445.015625 671.3125 447.339844 C 671.085938 449.660156 670.796875 451.976562 670.457031 454.289062 C 670.113281 456.597656 669.714844 458.894531 669.257812 461.183594 C 668.804688 463.476562 668.292969 465.753906 667.726562 468.015625 C 667.15625 470.28125 666.535156 472.53125 665.859375 474.765625 C 665.179688 477 664.449219 479.214844 663.660156 481.410156 C 662.875 483.609375 662.035156 485.789062 661.140625 487.945312 C 660.25 490.101562 659.304688 492.234375 658.304688 494.34375 C 657.304688 496.457031 656.257812 498.539062 655.15625 500.597656 C 654.054688 502.65625 652.90625 504.6875 651.707031 506.691406 C 650.503906 508.691406 649.257812 510.664062 647.960938 512.605469 C 646.664062 514.546875 645.320312 516.453125 643.929688 518.328125 C 642.539062 520.203125 641.101562 522.042969 639.621094 523.847656 C 638.140625 525.652344 636.617188 527.421875 635.046875 529.148438 C 633.480469 530.878906 631.871094 532.570312 630.222656 534.222656 C 628.570312 535.871094 626.878906 537.480469 625.148438 539.046875 C 623.421875 540.617188 621.652344 542.140625 619.847656 543.621094 C 618.042969 545.101562 616.203125 546.539062 614.328125 547.929688 C 612.453125 549.320312 610.546875 550.664062 608.605469 551.960938 C 606.664062 553.257812 604.691406 554.503906 602.691406 555.707031 C 600.6875 556.90625 598.65625 558.054688 596.597656 559.15625 C 594.539062 560.257812 592.457031 561.304688 590.34375 562.304688 C 588.234375 563.304688 586.101562 564.25 583.945312 565.140625 C 581.789062 566.035156 579.609375 566.875 577.410156 567.660156 C 575.214844 568.449219 573 569.179688 570.765625 569.859375 C 568.53125 570.535156 566.28125 571.15625 564.015625 571.726562 C 561.753906 572.292969 559.476562 572.804688 557.183594 573.257812 C 554.894531 573.714844 552.597656 574.113281 550.289062 574.457031 C 547.976562 574.796875 545.660156 575.085938 543.339844 575.3125 C 541.015625 575.542969 538.6875 575.714844 536.355469 575.828125 C 534.023438 575.941406 531.691406 576 529.355469 576 L 238.644531 576 C 236.308594 576 233.976562 575.941406 231.644531 575.828125 C 229.3125 575.714844 226.984375 575.542969 224.660156 575.3125 C 222.339844 575.085938 220.023438 574.796875 217.710938 574.457031 C 215.402344 574.113281 213.105469 573.714844 210.816406 573.257812 C 208.523438 572.804688 206.246094 572.292969 203.984375 571.726562 C 201.71875 571.15625 199.46875 570.535156 197.234375 569.859375 C 195 569.179688 192.785156 568.449219 190.585938 567.660156 C 188.390625 566.875 186.210938 566.035156 184.054688 565.140625 C 181.898438 564.25 179.765625 563.304688 177.65625 562.304688 C 175.542969 561.304688 173.460938 560.257812 171.402344 559.15625 C 169.34375 558.054688 167.3125 556.90625 165.308594 555.707031 C 163.308594 554.503906 161.335938 553.257812 159.394531 551.960938 C 157.453125 550.664062 155.546875 549.320312 153.671875 547.929688 C 151.796875 546.539062 149.957031 545.101562 148.152344 543.621094 C 146.347656 542.140625 144.578125 540.617188 142.851562 539.046875 C 141.121094 537.480469 139.429688 535.871094 137.777344 534.222656 C 136.128906 532.570312 134.519531 530.878906 132.953125 529.148438 C 131.382812 527.421875 129.859375 525.652344 128.378906 523.847656 C 126.898438 522.042969 125.460938 520.203125 124.070312 518.328125 C 122.679688 516.453125 121.335938 514.546875 120.039062 512.605469 C 118.742188 510.664062 117.492188 508.691406 116.292969 506.691406 C 115.09375 504.6875 113.945312 502.65625 112.84375 500.597656 C 111.742188 498.539062 110.691406 496.457031 109.695312 494.34375 C 108.695312 492.234375 107.75 490.101562 106.859375 487.945312 C 105.964844 485.789062 105.125 483.609375 104.339844 481.410156 C 103.550781 479.214844 102.820312 477 102.140625 474.765625 C 101.464844 472.53125 100.84375 470.28125 100.273438 468.015625 C 99.707031 465.753906 99.195312 463.476562 98.742188 461.183594 C 98.285156 458.894531 97.886719 456.597656 97.542969 454.289062 C 97.203125 451.976562 96.914062 449.660156 96.6875 447.339844 C 96.457031 445.015625 96.285156 442.6875 96.171875 440.355469 C 96.058594 438.023438 96 435.691406 96 433.355469 L 96 142.644531 C 96 140.308594 96.058594 137.976562 96.171875 135.644531 C 96.285156 133.3125 96.457031 130.984375 96.6875 128.660156 C 96.914062 126.339844 97.203125 124.023438 97.542969 121.710938 C 97.886719 119.402344 98.285156 117.105469 98.742188 114.816406 C 99.195312 112.523438 99.707031 110.246094 100.273438 107.984375 C 100.84375 105.71875 101.464844 103.46875 102.140625 101.234375 C 102.820312 99 103.550781 96.785156 104.339844 94.585938 C 105.125 92.390625 105.964844 90.210938 106.859375 88.054688 C 107.75 85.898438 108.695312 83.765625 109.695312 81.65625 C 110.691406 79.542969 111.742188 77.460938 112.84375 75.402344 C 113.945312 73.34375 115.09375 71.3125 116.292969 69.308594 C 117.492188 67.308594 118.742188 65.335938 120.039062 63.394531 C 121.335938 61.453125 122.679688 59.546875 124.070312 57.671875 C 125.460938 55.796875 126.898438 53.957031 128.378906 52.152344 C 129.859375 50.347656 131.382812 48.578125 132.953125 46.851562 C 134.519531 45.121094 136.128906 43.429688 137.777344 41.777344 C 139.429688 40.128906 141.121094 38.519531 142.851562 36.953125 C 144.578125 35.382812 146.347656 33.859375 148.152344 32.378906 C 149.957031 30.898438 151.796875 29.460938 153.671875 28.070312 C 155.546875 26.679688 157.453125 25.335938 159.394531 24.039062 C 161.335938 22.742188 163.308594 21.496094 165.308594 20.292969 C 167.3125 19.09375 169.34375 17.945312 171.402344 16.84375 C 173.460938 15.742188 175.542969 14.691406 177.65625 13.695312 C 179.765625 12.695312 181.898438 11.75 184.054688 10.859375 C 186.210938 9.964844 188.390625 9.125 190.585938 8.339844 C 192.785156 7.550781 195 6.820312 197.234375 6.140625 C 199.46875 5.464844 201.71875 4.84375 203.984375 4.273438 C 206.246094 3.707031 208.523438 3.195312 210.816406 2.742188 C 213.105469 2.285156 215.402344 1.886719 217.710938 1.542969 C 220.023438 1.203125 222.339844 0.914062 224.660156 0.6875 C 226.984375 0.457031 229.3125 0.285156 231.644531 0.171875 C 233.976562 0.0585938 236.308594 0 238.644531 0 Z M 238.644531 0 " fill-opacity="1" fill-rule="nonzero"/><g fill="#000000" fill-opacity="1"><g transform="translate(129.404541, 387.844955)"><g><path d="M 310.765625 0 L 294.421875 -204.796875 L 292.328125 -204.796875 L 221.546875 -2.09375 L 174.640625 -2.09375 L 103.859375 -204.796875 L 101.765625 -204.796875 L 85.4375 0 L 6.703125 0 L 37.6875 -345.515625 L 121.453125 -345.515625 L 198.09375 -146.171875 L 274.734375 -345.515625 L 358.5 -345.515625 L 389.5 0 Z M 310.765625 0 "/></g></g></g><g fill="#000000" fill-opacity="1"><g transform="translate(525.599118, 387.844955)"><g><path d="M 72.875 -89.625 C 86.269531 -89.625 97.644531 -84.945312 107 -75.59375 C 116.351562 -66.238281 121.03125 -54.863281 121.03125 -41.46875 C 121.03125 -28.34375 116.351562 -17.101562 107 -7.75 C 97.644531 1.601562 86.269531 6.28125 72.875 6.28125 C 59.75 6.28125 48.507812 1.601562 39.15625 -7.75 C 29.800781 -17.101562 25.125 -28.34375 25.125 -41.46875 C 25.125 -54.863281 29.800781 -66.238281 39.15625 -75.59375 C 48.507812 -84.945312 59.75 -89.625 72.875 -89.625 Z M 72.875 -89.625 "/></g></g></g></svg>