<svg xmlns="http://www.w3.org/2000/svg" xmlns:xlink="http://www.w3.org/1999/xlink" width="500" zoomAndPan="magnify" viewBox="0 0 375 374.999991" height="500" preserveAspectRatio="xMidYMid meet" version="1.0"><defs><clipPath id="5d84d3bd89"><path d="M 5 49.945312 L 250 49.945312 L 250 325 L 5 325 Z M 5 49.945312 " clip-rule="nonzero"/></clipPath><clipPath id="cd94c8f8c1"><path d="M 125 49.945312 L 370 49.945312 L 370 325 L 125 325 Z M 125 49.945312 " clip-rule="nonzero"/></clipPath></defs><g clip-path="url(#5d84d3bd89)"><path fill="#2a4047" d="M 5.207031 324.535156 L 5.207031 171.339844 C 5.207031 104.304688 59.738281 49.773438 126.773438 49.773438 C 154.746094 49.773438 183.375 65.113281 207.390625 92.960938 C 237.582031 127.972656 253.585938 174.207031 248.152344 210.769531 C 242.621094 248.023438 208.660156 309.003906 204.800781 315.835938 C 201.589844 321.527344 195.667969 324.722656 189.566406 324.722656 C 186.660156 324.722656 183.710938 323.996094 180.992188 322.464844 C 172.589844 317.726562 169.621094 307.070312 174.359375 298.660156 C 183.953125 281.648438 209.695312 231.777344 213.578125 205.628906 C 217.453125 179.519531 204.023438 142.578125 180.917969 115.785156 C 163.890625 96.042969 144.15625 84.71875 126.765625 84.71875 C 79.007812 84.71875 40.148438 123.574219 40.148438 171.335938 L 40.148438 324.527344 " fill-opacity="1" fill-rule="nonzero"/></g><g clip-path="url(#cd94c8f8c1)"><path fill="#2a4047" d="M 334.839844 324.535156 L 334.839844 171.339844 C 334.839844 123.585938 295.984375 84.722656 248.222656 84.722656 C 230.835938 84.722656 211.09375 96.046875 194.070312 115.789062 C 170.960938 142.582031 157.535156 179.53125 161.410156 205.632812 C 165.300781 231.824219 191.042969 281.667969 200.625 298.664062 C 205.367188 307.074219 202.398438 317.726562 193.996094 322.472656 C 191.285156 324.003906 188.332031 324.734375 185.421875 324.734375 C 179.320312 324.734375 173.398438 321.53125 170.1875 315.839844 C 166.332031 309.011719 132.371094 248.027344 126.835938 210.773438 C 121.402344 174.21875 137.40625 127.976562 167.597656 92.96875 C 191.617188 65.117188 220.246094 49.777344 248.210938 49.777344 C 315.246094 49.777344 369.78125 104.3125 369.78125 171.347656 L 369.78125 324.539062 " fill-opacity="1" fill-rule="nonzero"/></g></svg>