<svg xmlns="http://www.w3.org/2000/svg" xmlns:xlink="http://www.w3.org/1999/xlink" width="800" zoomAndPan="magnify" viewBox="0 0 600 359.999987" height="480" preserveAspectRatio="xMidYMid meet" version="1.0"><defs><g/></defs><g fill="#2a4047" fill-opacity="1"><g transform="translate(248.034614, 219.077463)"><g><path d="M 73.484375 0 L 69.625 -48.421875 L 69.125 -48.421875 L 52.390625 -0.5 L 41.296875 -0.5 L 24.5625 -48.421875 L 24.0625 -48.421875 L 20.203125 0 L 1.578125 0 L 8.90625 -81.703125 L 28.71875 -81.703125 L 46.84375 -34.5625 L 64.96875 -81.703125 L 84.765625 -81.703125 L 92.09375 0 Z M 73.484375 0 "/></g></g></g><g fill="#2a4047" fill-opacity="1"><g transform="translate(335.564781, 219.077463)"><g><path d="M 17.234375 -21.1875 C 20.398438 -21.1875 23.085938 -20.082031 25.296875 -17.875 C 27.515625 -15.664062 28.625 -12.972656 28.625 -9.796875 C 28.625 -6.703125 27.515625 -4.046875 25.296875 -1.828125 C 23.085938 0.378906 20.398438 1.484375 17.234375 1.484375 C 14.128906 1.484375 11.46875 0.378906 9.25 -1.828125 C 7.039062 -4.046875 5.9375 -6.703125 5.9375 -9.796875 C 5.9375 -12.972656 7.039062 -15.664062 9.25 -17.875 C 11.46875 -20.082031 14.128906 -21.1875 17.234375 -21.1875 Z M 17.234375 -21.1875 "/></g></g></g></svg>