<svg xmlns="http://www.w3.org/2000/svg" xmlns:xlink="http://www.w3.org/1999/xlink" width="800" zoomAndPan="magnify" viewBox="0 0 600 359.999987" height="480" preserveAspectRatio="xMidYMid meet" version="1.0"><defs><g/></defs><g fill="#2a4047" fill-opacity="1"><g transform="translate(52.777859, 219.077463)"><g><path d="M 73.484375 0 L 69.625 -48.421875 L 69.125 -48.421875 L 52.390625 -0.5 L 41.296875 -0.5 L 24.5625 -48.421875 L 24.0625 -48.421875 L 20.203125 0 L 1.578125 0 L 8.90625 -81.703125 L 28.71875 -81.703125 L 46.84375 -34.5625 L 64.96875 -81.703125 L 84.765625 -81.703125 L 92.09375 0 Z M 73.484375 0 "/></g></g></g><g fill="#2a4047" fill-opacity="1"><g transform="translate(140.308026, 219.077463)"><g><path d="M 24.5625 -81.703125 L 24.5625 0 L 5.9375 0 L 5.9375 -81.703125 Z M 24.5625 -81.703125 "/></g></g></g><g fill="#2a4047" fill-opacity="1"><g transform="translate(164.665046, 219.077463)"><g><path d="M 5.9375 -81.703125 L 35.15625 -81.703125 C 43.007812 -81.703125 49.410156 -79.601562 54.359375 -75.40625 C 59.316406 -71.21875 61.796875 -65.226562 61.796875 -57.4375 C 61.796875 -51.425781 60.289062 -46.390625 57.28125 -42.328125 C 54.28125 -38.273438 50.207031 -35.421875 45.0625 -33.765625 L 73.1875 0 L 49.515625 0 L 24.5625 -32.28125 L 24.5625 0 L 5.9375 0 Z M 24.5625 -45.453125 L 26.734375 -45.453125 C 28.453125 -45.453125 29.90625 -45.484375 31.09375 -45.546875 C 32.28125 -45.617188 33.632812 -45.851562 35.15625 -46.25 C 36.675781 -46.644531 37.894531 -47.203125 38.8125 -47.921875 C 39.738281 -48.648438 40.53125 -49.707031 41.1875 -51.09375 C 41.851562 -52.488281 42.1875 -54.175781 42.1875 -56.15625 C 42.1875 -58.132812 41.851562 -59.816406 41.1875 -61.203125 C 40.53125 -62.585938 39.738281 -63.640625 38.8125 -64.359375 C 37.894531 -65.085938 36.675781 -65.648438 35.15625 -66.046875 C 33.632812 -66.441406 32.28125 -66.671875 31.09375 -66.734375 C 29.90625 -66.804688 28.453125 -66.84375 26.734375 -66.84375 L 24.5625 -66.84375 Z M 24.5625 -45.453125 "/></g></g></g><g fill="#2a4047" fill-opacity="1"><g transform="translate(229.421195, 219.077463)"><g><path d="M 47.4375 -81.703125 L 80.40625 0 L 60.40625 0 L 54.375 -16.34375 L 23.265625 -16.34375 L 17.234375 0 L -2.765625 0 L 30.203125 -81.703125 Z M 48.03125 -32.6875 L 38.921875 -56.453125 L 38.71875 -56.453125 L 29.609375 -32.6875 Z M 48.03125 -32.6875 "/></g></g></g><g fill="#2a4047" fill-opacity="1"><g transform="translate(300.910527, 219.077463)"><g><path d="M 49.421875 -16.828125 C 52.253906 -16.828125 55.007812 -17.253906 57.6875 -18.109375 C 60.363281 -18.972656 62.328125 -19.800781 63.578125 -20.59375 L 65.453125 -21.890625 L 73.375 -6.046875 C 73.113281 -5.847656 72.75 -5.582031 72.28125 -5.25 C 71.820312 -4.914062 70.75 -4.300781 69.0625 -3.40625 C 67.382812 -2.519531 65.585938 -1.742188 63.671875 -1.078125 C 61.765625 -0.421875 59.257812 0.164062 56.15625 0.6875 C 53.050781 1.21875 49.847656 1.484375 46.546875 1.484375 C 38.953125 1.484375 31.753906 -0.378906 24.953125 -4.109375 C 18.148438 -7.835938 12.671875 -12.96875 8.515625 -19.5 C 4.359375 -26.039062 2.28125 -33.109375 2.28125 -40.703125 C 2.28125 -46.441406 3.5 -51.953125 5.9375 -57.234375 C 8.382812 -62.515625 11.632812 -67.035156 15.6875 -70.796875 C 19.75 -74.566406 24.488281 -77.570312 29.90625 -79.8125 C 35.320312 -82.0625 40.867188 -83.1875 46.546875 -83.1875 C 51.828125 -83.1875 56.695312 -82.554688 61.15625 -81.296875 C 65.613281 -80.046875 68.765625 -78.796875 70.609375 -77.546875 L 73.375 -75.65625 L 65.453125 -59.8125 C 64.992188 -60.207031 64.300781 -60.6875 63.375 -61.25 C 62.457031 -61.8125 60.609375 -62.550781 57.828125 -63.46875 C 55.054688 -64.394531 52.253906 -64.859375 49.421875 -64.859375 C 44.929688 -64.859375 40.898438 -64.132812 37.328125 -62.6875 C 33.765625 -61.238281 30.941406 -59.320312 28.859375 -56.9375 C 26.785156 -54.5625 25.203125 -52.003906 24.109375 -49.265625 C 23.023438 -46.523438 22.484375 -43.738281 22.484375 -40.90625 C 22.484375 -34.695312 24.804688 -29.128906 29.453125 -24.203125 C 34.109375 -19.285156 40.765625 -16.828125 49.421875 -16.828125 Z M 49.421875 -16.828125 "/></g></g></g><g fill="#2a4047" fill-opacity="1"><g transform="translate(369.330332, 219.077463)"><g><path d="M 24.5625 -81.703125 L 24.5625 -16.34375 L 52.6875 -16.34375 L 52.6875 0 L 5.9375 0 L 5.9375 -81.703125 Z M 24.5625 -81.703125 "/></g></g></g><g fill="#2a4047" fill-opacity="1"><g transform="translate(419.134865, 219.077463)"><g><path d="M 52.6875 -81.703125 L 52.6875 -65.359375 L 24.5625 -65.359375 L 24.5625 -49.125 L 51.5 -49.125 L 51.5 -32.78125 L 24.5625 -32.78125 L 24.5625 -16.34375 L 52.6875 -16.34375 L 52.6875 0 L 5.9375 0 L 5.9375 -81.703125 Z M 52.6875 -81.703125 "/></g></g></g><g fill="#2a4047" fill-opacity="1"><g transform="translate(470.424649, 219.077463)"><g><path d="M 36.046875 -83.1875 C 40.472656 -83.1875 44.796875 -82.539062 49.015625 -81.25 C 53.242188 -79.96875 56.378906 -78.695312 58.421875 -77.4375 L 61.40625 -75.46875 L 53.875 -60.609375 C 53.28125 -61.003906 52.453125 -61.515625 51.390625 -62.140625 C 50.335938 -62.765625 48.359375 -63.601562 45.453125 -64.65625 C 42.546875 -65.71875 39.835938 -66.25 37.328125 -66.25 C 34.234375 -66.25 31.84375 -65.585938 30.15625 -64.265625 C 28.46875 -62.953125 27.625 -61.171875 27.625 -58.921875 C 27.625 -57.796875 28.019531 -56.753906 28.8125 -55.796875 C 29.601562 -54.847656 30.957031 -53.828125 32.875 -52.734375 C 34.789062 -51.640625 36.472656 -50.765625 37.921875 -50.109375 C 39.378906 -49.453125 41.625 -48.460938 44.65625 -47.140625 C 49.9375 -44.890625 54.441406 -41.832031 58.171875 -37.96875 C 61.910156 -34.113281 63.78125 -29.742188 63.78125 -24.859375 C 63.78125 -20.171875 62.9375 -16.078125 61.25 -12.578125 C 59.5625 -9.078125 57.25 -6.335938 54.3125 -4.359375 C 51.375 -2.378906 48.125 -0.910156 44.5625 0.046875 C 41 1.003906 37.140625 1.484375 32.984375 1.484375 C 29.410156 1.484375 25.90625 1.117188 22.46875 0.390625 C 19.039062 -0.328125 16.171875 -1.234375 13.859375 -2.328125 C 11.546875 -3.421875 9.46875 -4.492188 7.625 -5.546875 C 5.78125 -6.597656 4.425781 -7.488281 3.5625 -8.21875 L 2.28125 -9.3125 L 11.59375 -24.953125 C 12.382812 -24.296875 13.472656 -23.453125 14.859375 -22.421875 C 16.242188 -21.398438 18.703125 -20.03125 22.234375 -18.3125 C 25.765625 -16.601562 28.882812 -15.75 31.59375 -15.75 C 39.445312 -15.75 43.375 -18.421875 43.375 -23.765625 C 43.375 -24.890625 43.09375 -25.929688 42.53125 -26.890625 C 41.96875 -27.847656 40.976562 -28.800781 39.5625 -29.75 C 38.144531 -30.707031 36.890625 -31.46875 35.796875 -32.03125 C 34.710938 -32.59375 32.929688 -33.453125 30.453125 -34.609375 C 27.972656 -35.765625 26.140625 -36.640625 24.953125 -37.234375 C 20.003906 -39.679688 16.175781 -42.734375 13.46875 -46.390625 C 10.757812 -50.054688 9.40625 -54.003906 9.40625 -58.234375 C 9.40625 -65.554688 12.113281 -71.546875 17.53125 -76.203125 C 22.945312 -80.859375 29.117188 -83.1875 36.046875 -83.1875 Z M 36.046875 -83.1875 "/></g></g></g><g fill="#2a4047" fill-opacity="1"><g transform="translate(530.824021, 219.077463)"><g><path d="M 17.234375 -21.1875 C 20.398438 -21.1875 23.085938 -20.082031 25.296875 -17.875 C 27.515625 -15.664062 28.625 -12.972656 28.625 -9.796875 C 28.625 -6.703125 27.515625 -4.046875 25.296875 -1.828125 C 23.085938 0.378906 20.398438 1.484375 17.234375 1.484375 C 14.128906 1.484375 11.46875 0.378906 9.25 -1.828125 C 7.039062 -4.046875 5.9375 -6.703125 5.9375 -9.796875 C 5.9375 -12.972656 7.039062 -15.664062 9.25 -17.875 C 11.46875 -20.082031 14.128906 -21.1875 17.234375 -21.1875 Z M 17.234375 -21.1875 "/></g></g></g></svg>