<svg xmlns="http://www.w3.org/2000/svg" xmlns:xlink="http://www.w3.org/1999/xlink" width="1024" zoomAndPan="magnify" viewBox="0 0 768 576" height="768" preserveAspectRatio="xMidYMid meet" version="1.0"><defs><g/></defs><g fill="#2a4047" fill-opacity="1"><g transform="translate(115.160459, 360.771096)"><g><path d="M 99.484375 -229.59375 C 111.691406 -229.59375 123.628906 -227.816406 135.296875 -224.265625 C 146.960938 -220.710938 155.617188 -217.207031 161.265625 -213.75 L 169.46875 -208.28125 L 148.6875 -167.28125 C 147.050781 -168.375 144.773438 -169.785156 141.859375 -171.515625 C 138.941406 -173.242188 133.472656 -175.566406 125.453125 -178.484375 C 117.441406 -181.398438 109.972656 -182.859375 103.046875 -182.859375 C 94.484375 -182.859375 87.878906 -181.035156 83.234375 -177.390625 C 78.585938 -173.742188 76.265625 -168.820312 76.265625 -162.625 C 76.265625 -159.53125 77.351562 -156.660156 79.53125 -154.015625 C 81.71875 -151.378906 85.453125 -148.554688 90.734375 -145.546875 C 96.023438 -142.535156 100.675781 -140.117188 104.6875 -138.296875 C 108.695312 -136.484375 114.890625 -133.753906 123.265625 -130.109375 C 137.847656 -123.910156 150.285156 -115.476562 160.578125 -104.8125 C 170.867188 -94.15625 176.015625 -82.085938 176.015625 -68.609375 C 176.015625 -55.671875 173.691406 -44.367188 169.046875 -34.703125 C 164.398438 -25.046875 158.019531 -17.484375 149.90625 -12.015625 C 141.800781 -6.554688 132.828125 -2.507812 122.984375 0.125 C 113.148438 2.769531 102.492188 4.09375 91.015625 4.09375 C 81.179688 4.09375 71.523438 3.09375 62.046875 1.09375 C 52.566406 -0.90625 44.640625 -3.410156 38.265625 -6.421875 C 31.890625 -9.429688 26.148438 -12.390625 21.046875 -15.296875 C 15.941406 -18.210938 12.207031 -20.675781 9.84375 -22.6875 L 6.28125 -25.6875 L 31.984375 -68.875 C 34.171875 -67.050781 37.175781 -64.726562 41 -61.90625 C 44.820312 -59.082031 51.609375 -55.300781 61.359375 -50.5625 C 71.109375 -45.820312 79.71875 -43.453125 87.1875 -43.453125 C 108.875 -43.453125 119.71875 -50.832031 119.71875 -65.59375 C 119.71875 -68.695312 118.941406 -71.566406 117.390625 -74.203125 C 115.847656 -76.847656 113.113281 -79.488281 109.1875 -82.125 C 105.269531 -84.769531 101.804688 -86.867188 98.796875 -88.421875 C 95.796875 -89.972656 90.878906 -92.34375 84.046875 -95.53125 C 77.210938 -98.71875 72.15625 -101.128906 68.875 -102.765625 C 55.207031 -109.515625 44.640625 -117.941406 37.171875 -128.046875 C 29.703125 -138.160156 25.96875 -149.050781 25.96875 -160.71875 C 25.96875 -180.945312 33.4375 -197.484375 48.375 -210.328125 C 63.320312 -223.171875 80.359375 -229.59375 99.484375 -229.59375 Z M 99.484375 -229.59375 "/></g></g></g><g fill="#2a4047" fill-opacity="1"><g transform="translate(298.83229, 360.771096)"><g><path d="M 202.8125 0 L 192.15625 -133.65625 L 190.78125 -133.65625 L 144.59375 -1.359375 L 113.984375 -1.359375 L 67.78125 -133.65625 L 66.421875 -133.65625 L 55.765625 0 L 4.375 0 L 24.59375 -225.5 L 79.265625 -225.5 L 129.28125 -95.390625 L 179.296875 -225.5 L 233.96875 -225.5 L 254.1875 0 Z M 202.8125 0 "/></g></g></g><g fill="#2a4047" fill-opacity="1"><g transform="translate(557.394094, 360.771096)"><g><path d="M 47.5625 -58.5 C 56.300781 -58.5 63.722656 -55.441406 69.828125 -49.328125 C 75.929688 -43.222656 78.984375 -35.800781 78.984375 -27.0625 C 78.984375 -18.5 75.929688 -11.164062 69.828125 -5.0625 C 63.722656 1.039062 56.300781 4.09375 47.5625 4.09375 C 39 4.09375 31.664062 1.039062 25.5625 -5.0625 C 19.457031 -11.164062 16.40625 -18.5 16.40625 -27.0625 C 16.40625 -35.800781 19.457031 -43.222656 25.5625 -49.328125 C 31.664062 -55.441406 39 -58.5 47.5625 -58.5 Z M 47.5625 -58.5 "/></g></g></g></svg>