<svg xmlns="http://www.w3.org/2000/svg" xmlns:xlink="http://www.w3.org/1999/xlink" width="1024" zoomAndPan="magnify" viewBox="0 0 768 576" height="768" preserveAspectRatio="xMidYMid meet" version="1.0"><defs><g/></defs><g fill="#2a4047" fill-opacity="1"><g transform="translate(77.778984, 407.998212)"><g><path d="M 120.96875 -279.140625 C 135.8125 -279.140625 150.320312 -276.976562 164.5 -272.65625 C 178.675781 -268.34375 189.195312 -264.082031 196.0625 -259.875 L 206.03125 -253.21875 L 180.78125 -203.375 C 178.78125 -204.707031 176.007812 -206.425781 172.46875 -208.53125 C 168.925781 -210.632812 162.28125 -213.457031 152.53125 -217 C 142.78125 -220.539062 133.695312 -222.3125 125.28125 -222.3125 C 114.863281 -222.3125 106.832031 -220.097656 101.1875 -215.671875 C 95.539062 -211.242188 92.71875 -205.257812 92.71875 -197.71875 C 92.71875 -193.957031 94.046875 -190.46875 96.703125 -187.25 C 99.359375 -184.039062 103.898438 -180.609375 110.328125 -176.953125 C 116.753906 -173.296875 122.40625 -170.359375 127.28125 -168.140625 C 132.15625 -165.929688 139.6875 -162.613281 149.875 -158.1875 C 167.59375 -150.644531 182.710938 -140.394531 195.234375 -127.4375 C 207.753906 -114.476562 214.015625 -99.800781 214.015625 -83.40625 C 214.015625 -67.675781 211.1875 -53.941406 205.53125 -42.203125 C 199.882812 -30.460938 192.128906 -21.269531 182.265625 -14.625 C 172.410156 -7.976562 161.5 -3.050781 149.53125 0.15625 C 137.570312 3.375 124.613281 4.984375 110.65625 4.984375 C 98.695312 4.984375 86.957031 3.765625 75.4375 1.328125 C 63.914062 -1.109375 54.273438 -4.15625 46.515625 -7.8125 C 38.765625 -11.46875 31.785156 -15.066406 25.578125 -18.609375 C 19.378906 -22.148438 14.84375 -25.140625 11.96875 -27.578125 L 7.640625 -31.234375 L 38.875 -83.75 C 41.539062 -81.53125 45.195312 -78.703125 49.84375 -75.265625 C 54.5 -71.835938 62.753906 -67.242188 74.609375 -61.484375 C 86.460938 -55.722656 96.925781 -52.84375 106 -52.84375 C 132.363281 -52.84375 145.546875 -61.8125 145.546875 -79.75 C 145.546875 -83.519531 144.601562 -87.007812 142.71875 -90.21875 C 140.84375 -93.4375 137.519531 -96.648438 132.75 -99.859375 C 127.988281 -103.066406 123.78125 -105.613281 120.125 -107.5 C 116.46875 -109.382812 110.484375 -112.265625 102.171875 -116.140625 C 93.867188 -120.015625 87.726562 -122.953125 83.75 -124.953125 C 67.125 -133.148438 54.269531 -143.394531 45.1875 -155.6875 C 36.101562 -167.976562 31.5625 -181.21875 31.5625 -195.40625 C 31.5625 -219.988281 40.644531 -240.085938 58.8125 -255.703125 C 76.976562 -271.328125 97.695312 -279.140625 120.96875 -279.140625 Z M 120.96875 -279.140625 "/></g></g></g><g fill="#2a4047" fill-opacity="1"><g transform="translate(280.461605, 407.998212)"><g><path d="M 246.578125 0 L 233.609375 -162.5 L 231.953125 -162.5 L 175.796875 -1.65625 L 138.578125 -1.65625 L 82.40625 -162.5 L 80.75 -162.5 L 67.796875 0 L 5.3125 0 L 29.90625 -274.15625 L 96.375 -274.15625 L 157.1875 -115.984375 L 218 -274.15625 L 284.453125 -274.15625 L 309.046875 0 Z M 246.578125 0 "/></g></g></g><g fill="#2a4047" fill-opacity="1"><g transform="translate(574.187159, 407.998212)"><g><path d="M 57.828125 -71.109375 C 68.453125 -71.109375 77.472656 -67.394531 84.890625 -59.96875 C 92.316406 -52.550781 96.03125 -43.53125 96.03125 -32.90625 C 96.03125 -22.488281 92.316406 -13.566406 84.890625 -6.140625 C 77.472656 1.273438 68.453125 4.984375 57.828125 4.984375 C 47.410156 4.984375 38.488281 1.273438 31.0625 -6.140625 C 23.644531 -13.566406 19.9375 -22.488281 19.9375 -32.90625 C 19.9375 -43.53125 23.644531 -52.550781 31.0625 -59.96875 C 38.488281 -67.394531 47.410156 -71.109375 57.828125 -71.109375 Z M 57.828125 -71.109375 "/></g></g></g></svg>